<mxfile host="app.diagrams.net" modified="2023-02-12T01:25:43.117Z" agent="5.0 (Windows NT 10.0; Win64; x64) AppleWebKit/537.36 (KHTML, like Gecko) Chrome/110.0.0.0 Safari/537.36" etag="bsyJ7HnUiv0OzMUbNrbm" version="20.8.18" type="github">
  <diagram name="Page-1" id="pYjRhYSXyb20abshA6fd">
    <mxGraphModel dx="1050" dy="594" grid="1" gridSize="10" guides="1" tooltips="1" connect="1" arrows="1" fold="1" page="1" pageScale="1" pageWidth="850" pageHeight="1100" math="0" shadow="0">
      <root>
        <mxCell id="0" />
        <mxCell id="1" parent="0" />
        <mxCell id="32zx5d0WB8H-D7jFBALv-1" value="User" style="swimlane;horizontal=0;whiteSpace=wrap;html=1;" vertex="1" parent="1">
          <mxGeometry x="40" y="130" width="910" height="160" as="geometry" />
        </mxCell>
        <mxCell id="32zx5d0WB8H-D7jFBALv-2" value="User choose User Profile" style="shape=ellipse;html=1;fillColor=strokeColor;strokeWidth=2;verticalLabelPosition=bottom;verticalAlignment=top;perimeter=ellipsePerimeter;" vertex="1" parent="32zx5d0WB8H-D7jFBALv-1">
          <mxGeometry x="80" y="70" width="40" height="40" as="geometry" />
        </mxCell>
        <mxCell id="32zx5d0WB8H-D7jFBALv-3" value="" style="ellipse;html=1;shape=endState;fillColor=#000000;strokeColor=#ff0000;strokeWidth=2;fontFamily=Helvetica;fontSize=12;fontColor=default;" vertex="1" parent="32zx5d0WB8H-D7jFBALv-1">
          <mxGeometry x="860" y="70" width="30" height="30" as="geometry" />
        </mxCell>
        <mxCell id="32zx5d0WB8H-D7jFBALv-5" value="ProfileController" style="swimlane;horizontal=0;whiteSpace=wrap;html=1;" vertex="1" parent="1">
          <mxGeometry x="40" y="300" width="910" height="150" as="geometry" />
        </mxCell>
        <mxCell id="32zx5d0WB8H-D7jFBALv-9" value="Display User Information" style="rounded=1;whiteSpace=wrap;html=1;strokeWidth=2;fontFamily=Helvetica;fontSize=12;" vertex="1" parent="32zx5d0WB8H-D7jFBALv-5">
          <mxGeometry x="770" y="40" width="120" height="60" as="geometry" />
        </mxCell>
        <mxCell id="32zx5d0WB8H-D7jFBALv-50" style="edgeStyle=orthogonalEdgeStyle;rounded=0;orthogonalLoop=1;jettySize=auto;html=1;dashed=1;" edge="1" parent="32zx5d0WB8H-D7jFBALv-5" source="32zx5d0WB8H-D7jFBALv-11" target="32zx5d0WB8H-D7jFBALv-18">
          <mxGeometry relative="1" as="geometry" />
        </mxCell>
        <mxCell id="32zx5d0WB8H-D7jFBALv-11" value="Display User Profile&amp;nbsp;" style="rounded=1;whiteSpace=wrap;html=1;strokeWidth=2;fontFamily=Helvetica;fontSize=12;" vertex="1" parent="32zx5d0WB8H-D7jFBALv-5">
          <mxGeometry x="50" y="20" width="120" height="60" as="geometry" />
        </mxCell>
        <mxCell id="32zx5d0WB8H-D7jFBALv-18" value="Send Resquest with User ID" style="rounded=1;whiteSpace=wrap;html=1;strokeWidth=2;fontFamily=Helvetica;fontSize=12;" vertex="1" parent="32zx5d0WB8H-D7jFBALv-5">
          <mxGeometry x="280" y="20" width="120" height="60" as="geometry" />
        </mxCell>
        <mxCell id="32zx5d0WB8H-D7jFBALv-28" value="UserController" style="swimlane;horizontal=0;whiteSpace=wrap;html=1;" vertex="1" parent="1">
          <mxGeometry x="40" y="460" width="910" height="200" as="geometry" />
        </mxCell>
        <mxCell id="32zx5d0WB8H-D7jFBALv-29" value="Send Back User Information" style="rounded=1;whiteSpace=wrap;html=1;strokeWidth=2;fontFamily=Helvetica;fontSize=12;" vertex="1" parent="32zx5d0WB8H-D7jFBALv-28">
          <mxGeometry x="590" y="50" width="120" height="60" as="geometry" />
        </mxCell>
        <mxCell id="32zx5d0WB8H-D7jFBALv-53" style="edgeStyle=orthogonalEdgeStyle;rounded=0;orthogonalLoop=1;jettySize=auto;html=1;entryX=0;entryY=0.25;entryDx=0;entryDy=0;dashed=1;" edge="1" parent="32zx5d0WB8H-D7jFBALv-28" source="32zx5d0WB8H-D7jFBALv-31" target="32zx5d0WB8H-D7jFBALv-29">
          <mxGeometry relative="1" as="geometry" />
        </mxCell>
        <mxCell id="32zx5d0WB8H-D7jFBALv-31" value="Query User Information&amp;nbsp;" style="rounded=1;whiteSpace=wrap;html=1;strokeWidth=2;fontFamily=Helvetica;fontSize=12;" vertex="1" parent="32zx5d0WB8H-D7jFBALv-28">
          <mxGeometry x="140" y="60" width="120" height="60" as="geometry" />
        </mxCell>
        <mxCell id="32zx5d0WB8H-D7jFBALv-34" style="edgeStyle=orthogonalEdgeStyle;rounded=0;orthogonalLoop=1;jettySize=auto;html=1;entryX=0.5;entryY=1;entryDx=0;entryDy=0;dashed=1;strokeWidth=1;fontFamily=Helvetica;fontSize=12;fontColor=default;" edge="1" parent="1" source="32zx5d0WB8H-D7jFBALv-9" target="32zx5d0WB8H-D7jFBALv-3">
          <mxGeometry relative="1" as="geometry" />
        </mxCell>
        <mxCell id="32zx5d0WB8H-D7jFBALv-47" style="edgeStyle=orthogonalEdgeStyle;rounded=0;orthogonalLoop=1;jettySize=auto;html=1;entryX=0.5;entryY=0;entryDx=0;entryDy=0;dashed=1;strokeWidth=1;fontFamily=Helvetica;fontSize=12;fontColor=default;" edge="1" parent="1" source="32zx5d0WB8H-D7jFBALv-2" target="32zx5d0WB8H-D7jFBALv-11">
          <mxGeometry relative="1" as="geometry" />
        </mxCell>
        <mxCell id="32zx5d0WB8H-D7jFBALv-49" value="User Profile" style="text;html=1;strokeColor=none;fillColor=none;align=center;verticalAlign=middle;whiteSpace=wrap;rounded=0;fontSize=19;" vertex="1" parent="1">
          <mxGeometry x="460" y="40" width="180" height="30" as="geometry" />
        </mxCell>
        <mxCell id="32zx5d0WB8H-D7jFBALv-52" style="edgeStyle=orthogonalEdgeStyle;rounded=0;orthogonalLoop=1;jettySize=auto;html=1;dashed=1;" edge="1" parent="1" source="32zx5d0WB8H-D7jFBALv-18" target="32zx5d0WB8H-D7jFBALv-31">
          <mxGeometry relative="1" as="geometry">
            <Array as="points">
              <mxPoint x="380" y="410" />
              <mxPoint x="240" y="410" />
            </Array>
          </mxGeometry>
        </mxCell>
        <mxCell id="32zx5d0WB8H-D7jFBALv-54" style="edgeStyle=orthogonalEdgeStyle;rounded=0;orthogonalLoop=1;jettySize=auto;html=1;entryX=0.36;entryY=1.053;entryDx=0;entryDy=0;entryPerimeter=0;dashed=1;" edge="1" parent="1" source="32zx5d0WB8H-D7jFBALv-29" target="32zx5d0WB8H-D7jFBALv-9">
          <mxGeometry relative="1" as="geometry" />
        </mxCell>
      </root>
    </mxGraphModel>
  </diagram>
</mxfile>
